HIERARCHY
ROOT Hips
{
	OFFSET -3.958830 18.904000 13.208200
	CHANNELS 6 Xposition Yposition Zposition Zrotation Yrotation Xrotation 
	JOINT LHipJoint
	{
		OFFSET 0.000000 0.000000 0.000000
		CHANNELS 3 Zrotation Yrotation Xrotation
		JOINT LeftUpLeg
		{
			OFFSET 1.800000 -1.400000 0.085000
			CHANNELS 3 Zrotation Yrotation Xrotation
			JOINT LeftLeg
			{
				OFFSET 2.215000 -6.000000 0.000000
				CHANNELS 3 Zrotation Yrotation Xrotation
				JOINT LeftFoot
				{
					OFFSET 2.500000 -6.900000 0.000000
					CHANNELS 3 Zrotation Yrotation Xrotation
					JOINT LeftToeBase
					{
						OFFSET 0.200000 -0.500000 1.950000
						CHANNELS 3 Zrotation Yrotation Xrotation
						End Site
						{
							OFFSET 0.000000 0.000000 0.000000
						}
					}
				}
			}
		}
	}
	JOINT RHipJoint
	{
		OFFSET 0.000000 0.000000 0.000000
		CHANNELS 3 Zrotation Yrotation Xrotation
		JOINT RightUpLeg
		{
			OFFSET -1.800000 -1.400000 0.085000
			CHANNELS 3 Zrotation Yrotation Xrotation
			JOINT RightLeg
			{
				OFFSET -2.215000 -6.000000 0.000000
				CHANNELS 3 Zrotation Yrotation Xrotation
				JOINT RightFoot
				{
					OFFSET -2.500000 -6.900000 0.000000
					CHANNELS 3 Zrotation Yrotation Xrotation
					JOINT RightToeBase
					{
						OFFSET -0.200000 -0.500000 1.950000
						CHANNELS 3 Zrotation Yrotation Xrotation
						End Site
						{
							OFFSET 0.000000 0.000000 0.000000
						}
					}
				}
			}
		}
	}
	JOINT LowerBack
	{
		OFFSET 0.000000 0.000000 0.000000
		CHANNELS 3 Zrotation Yrotation Xrotation
		JOINT Spine
		{
			OFFSET -0.087000 1.940000 -0.288900
			CHANNELS 3 Zrotation Yrotation Xrotation
			JOINT Spine1
			{
				OFFSET 0.000000 1.950000 0.060000
				CHANNELS 3 Zrotation Yrotation Xrotation
				JOINT Neck
				{
					OFFSET 0.000000 0.000000 0.000000
					CHANNELS 3 Zrotation Yrotation Xrotation
					JOINT Neck1
					{
						OFFSET 0.000000 1.600000 0.340000
						CHANNELS 3 Zrotation Yrotation Xrotation
						JOINT Head
						{
							OFFSET 0.000000 1.667000 -0.240000
							CHANNELS 3 Zrotation Yrotation Xrotation
							End Site
							{
								OFFSET 0.000000 0.000000 0.000000
							}
						}
					}
				}
				JOINT LeftShoulder
				{
					OFFSET 0.000000 0.000000 0.000000
					CHANNELS 3 Zrotation Yrotation Xrotation
					JOINT LeftArm
					{
						OFFSET 2.700000 1.550000 -0.730000
						CHANNELS 3 Zrotation Yrotation Xrotation
						JOINT LeftForeArm
						{
							OFFSET 5.450000 0.000000 0.000000
							CHANNELS 3 Zrotation Yrotation Xrotation
							JOINT LeftHand
							{
								OFFSET 3.450000 0.000000 0.000000
								CHANNELS 3 Zrotation Yrotation Xrotation
								JOINT LeftHandIndex1
								{
									OFFSET 0.750000 0.000000 0.000000
									CHANNELS 3 Zrotation Yrotation Xrotation
									End Site
									{
										OFFSET 0.000000 0.000000 0.000000
									}
								}
							}
						}
					}
				}
				JOINT RightShoulder
				{
					OFFSET 0.000000 0.000000 0.000000
					CHANNELS 3 Zrotation Yrotation Xrotation
					JOINT RightArm
					{
						OFFSET -2.700000 1.550000 -0.730000
						CHANNELS 3 Zrotation Yrotation Xrotation
						JOINT RightForeArm
						{
							OFFSET -5.450000 0.000000 0.000000
							CHANNELS 3 Zrotation Yrotation Xrotation
							JOINT RightHand
							{
								OFFSET -3.450000 0.000000 0.000000
								CHANNELS 3 Zrotation Yrotation Xrotation
								JOINT RightHandIndex1
								{
									OFFSET -0.750000 0.000000 0.000000
									CHANNELS 3 Zrotation Yrotation Xrotation
									End Site
									{
										OFFSET 0.000000 0.000000 0.000000
									}
								}
							}
						}
					}
				}
			}
		}
	}
}
MOTION
Frames: 11
Frame Time: 0.016667
0.017890 17.251620 -3.319850 -5.846393 -17.708368 -0.637382 -15.025522 13.595697 3.796712 7.905908 -0.815637 -15.662917 -12.993160 4.659655 1.423199 -0.286953 3.760028 3.170817 0.488530 0.116650 0.545700 18.229572 -10.322441 3.187464 0.539704 0.556152 -3.311590 9.703038 -5.173657 9.195400 -0.649531 -3.340254 3.201142 -0.073970 -0.328390 0.195650 -3.488103 -3.088109 -8.386488 27.564115 -4.467018 28.348803 -15.281290 5.617204 -0.138631 14.414993 -6.692539 -14.160706 -17.318902 7.324882 60.232603 -10.983290 -0.873290 -17.044710 -27.420398 -3.133888 0.229649 -50.340130 6.637495 -8.453530 -15.687340 -14.857809 -0.930257 -3.293446 2.789343 0.809010 -0.366620 0.361920 0.001200 -2.189647 15.483725 10.101773 18.602438 3.565238 -13.744790 -67.113543 27.277548 -19.343972 2.229540 -1.476298 0.026600 0.106380 -0.018500 -0.292750 
0.002160 17.229730 -3.333200 -5.710034 -17.814877 -0.545590 -15.051193 13.638797 3.829977 8.292936 -0.834140 -16.721589 -13.756939 4.993763 2.692960 -0.273090 3.839402 3.120952 0.484730 0.105290 0.548370 18.190166 -10.312071 3.166401 0.509939 0.714907 -3.821959 9.765287 -5.251612 9.974210 -0.635788 -3.324576 3.195767 -0.085620 -0.343630 0.208750 -3.383137 -3.178739 -8.433454 26.625324 -4.120661 28.722877 -13.940565 5.844000 -0.513842 14.176572 -6.396374 -13.889774 -16.119645 6.628095 60.291362 -12.030240 -0.745700 -17.257790 -27.456987 -2.666164 0.050814 -50.473457 6.740781 -8.560651 -16.249481 -14.840626 -0.873065 -3.297673 2.807960 0.805180 -0.371270 0.365140 -0.004370 -1.668279 15.073645 9.972628 21.642807 4.270026 -14.355807 -76.994224 29.064739 -25.378161 2.196090 -1.473314 0.037940 0.082120 -0.017870 -0.294260 
-0.012600 17.208230 -3.345550 -5.768577 -17.785441 -0.417055 -15.102761 13.751457 3.858360 8.813386 -0.880504 -18.287023 -14.285730 5.486332 4.788345 -0.262978 3.959086 3.057819 0.463950 0.060500 0.538780 18.123123 -10.256821 3.147326 0.665086 0.899773 -4.379275 9.852207 -5.360643 10.933053 -0.619435 -3.312163 3.184058 -0.114850 -0.345160 0.233090 -3.199366 -3.451965 -8.491678 25.556307 -3.871912 29.425713 -12.319165 6.142866 -1.420209 14.033274 -6.142608 -13.643428 -14.959085 6.068332 60.147017 -13.336000 -0.474960 -16.954630 -27.651457 -1.571462 -0.497513 -50.815536 6.953433 -8.696649 -16.729249 -14.822993 -0.815529 -3.310657 2.829437 0.808290 -0.371500 0.362740 -0.005330 -1.161764 14.217982 10.149424 25.728873 4.426617 -14.444435 -88.926510 33.348272 -36.125968 2.131628 -1.402555 0.041000 0.051880 -0.007640 -0.295080 
-0.031070 17.182940 -3.359440 -5.778152 -17.597649 -0.645804 -15.162303 13.886505 3.878236 9.382328 -0.920118 -19.941344 -14.647829 6.148042 7.528328 -0.225910 4.082332 2.975249 0.453000 0.050940 0.524990 18.051181 -10.193552 3.120349 0.764940 1.028149 -4.669621 10.029429 -5.546466 12.180168 -0.609916 -3.326849 3.180779 -0.135950 -0.375660 0.219410 -2.999916 -3.787886 -8.535450 24.307345 -3.738186 30.499420 -10.541496 6.406488 -2.265878 13.627050 -5.873991 -13.629448 -14.187434 5.837556 60.697384 -13.694960 -0.485010 -16.950970 -27.664296 -0.620392 -0.983959 -51.657646 7.030493 -8.981920 -16.908978 -14.883853 -0.731561 -3.292727 2.844862 0.801970 -0.397010 0.364240 -0.010410 -0.227043 13.337337 10.718206 30.227181 3.629897 -13.931747 -103.132758 38.755896 -53.917324 2.106111 -1.265611 0.057110 0.023950 -0.013450 -0.290410 
-0.051020 17.154620 -3.378060 -5.974825 -17.203063 -1.034106 -15.217710 13.994597 3.908753 10.218963 -0.974527 -21.811268 -14.882363 6.962819 10.826130 -0.188372 4.342717 2.858411 0.440180 0.014910 0.525660 17.993814 -10.114333 3.096226 1.081110 1.197688 -4.867733 10.258457 -5.818355 13.687236 -0.620281 -3.382589 3.158001 -0.169580 -0.384510 0.226410 -2.837611 -4.113672 -8.572875 23.423812 -3.774158 31.664189 -9.093327 6.591833 -2.993295 13.152816 -5.382397 -13.742638 -13.154154 5.527448 61.312326 -13.847480 -0.630220 -16.709930 -27.781467 -0.172014 -1.326893 -52.513824 7.002211 -9.233323 -17.136319 -14.808702 -0.682148 -3.284349 2.846516 0.816530 -0.413330 0.370810 -0.008300 0.933533 12.562241 11.531588 34.798182 2.053491 -12.987455 -117.959545 43.634617 -78.500865 2.186135 -1.222641 0.061520 0.006250 -0.017340 -0.289680 
-0.070030 17.119090 -3.402440 -6.347184 -16.940827 -1.648214 -15.227691 13.987149 3.940907 11.225242 -1.016648 -23.653924 -14.996464 7.897202 14.523705 -0.153262 4.705433 2.699690 0.421670 -0.004230 0.521640 17.994555 -10.087510 3.081613 1.413469 1.411217 -4.975351 10.667804 -6.200947 15.423613 -0.642569 -3.505540 3.113614 -0.185880 -0.396470 0.212630 -2.831951 -4.157880 -8.570568 23.311194 -4.039941 32.891298 -8.227933 6.427133 -2.944484 12.433267 -4.888334 -13.684278 -12.019081 5.156339 61.241838 -13.959210 -0.705580 -17.334000 -27.693687 -0.377033 -1.302218 -53.445799 6.839048 -9.838646 -17.336452 -15.672568 -0.565577 -3.271976 2.835602 0.826450 -0.428440 0.375830 -0.015660 2.282580 12.035121 11.989303 39.334862 1.148609 -12.396064 -132.088312 47.361954 -106.564473 2.294265 -1.380911 0.054730 0.009340 -0.015560 -0.292620 
-0.090880 17.082120 -3.428330 -6.656621 -16.679564 -2.406250 -15.266920 13.963808 4.021331 12.246545 -1.129074 -25.521401 -15.096427 8.886033 18.362687 -0.084215 5.165704 2.502273 0.443810 0.022400 0.549670 17.980768 -10.004643 3.046097 1.688145 1.620356 -4.929228 11.095367 -6.632226 17.216970 -0.691254 -3.658335 3.055274 -0.187770 -0.429970 0.215970 -2.771361 -4.302014 -8.600364 22.887674 -4.189398 34.417453 -7.076664 6.389323 -3.228822 11.662461 -4.436502 -13.446515 -11.135348 4.855694 61.450007 -13.650330 -0.820030 -18.157220 -28.004170 -0.525082 -1.278458 -54.311443 6.783090 -10.439359 -17.364510 -16.690510 -0.444877 -3.246619 2.848104 0.832970 -0.448500 0.402240 -0.015660 4.155169 11.535174 12.045306 42.896820 -0.487465 -12.831324 -146.024892 52.607073 -137.579271 2.310954 -1.608193 0.077090 -0.007490 -0.041800 -0.294360 
-0.107230 17.038270 -3.439480 -7.296335 -16.647627 -2.751656 -15.304761 13.873891 4.150607 13.520546 -1.202347 -27.537073 -15.173083 9.859341 21.937278 -0.022261 5.718873 2.276163 0.456130 0.035400 0.574070 17.985178 -9.877912 3.018984 2.183786 1.912473 -5.045351 11.690668 -7.094945 18.856843 -0.745644 -3.818664 2.989087 -0.191380 -0.447810 0.232330 -2.747504 -4.419774 -8.658302 23.229714 -4.266512 35.404722 -6.052379 6.614018 -3.781871 10.890556 -4.069049 -13.114617 -10.689982 4.442979 61.838793 -13.420650 -0.963120 -18.663180 -28.652186 -0.686947 -1.179087 -55.017310 7.043340 -10.891947 -17.373611 -17.408514 -0.400230 -3.244914 2.844582 0.846330 -0.454530 0.429420 -0.018800 6.330979 11.130733 11.756176 45.465859 -2.738731 -14.761676 -161.367397 58.715207 -168.768006 2.219584 -1.698548 0.090920 -0.015650 -0.052690 -0.299480 
-0.120090 16.989340 -3.444690 -7.946333 -16.862180 -2.774675 -15.347569 13.749081 4.314504 14.684440 -1.261271 -29.686985 -15.057254 10.731560 25.184293 0.002995 6.269995 2.047627 0.452880 0.022950 0.604810 17.990521 -9.742849 2.992151 2.678747 2.323161 -5.454057 12.174434 -7.539649 20.582569 -0.787085 -3.970608 2.916183 -0.195400 -0.468140 0.238760 -2.718175 -4.500505 -8.744899 23.595461 -4.077675 35.957335 -5.032083 7.165813 -4.598320 10.203590 -3.574358 -12.777547 -10.041553 3.726452 62.498515 -13.353750 -0.794470 -18.867320 -29.498188 -0.895522 -1.006681 -55.478802 7.530682 -11.190060 -17.527145 -17.749583 -0.428670 -3.257158 2.822623 0.875470 -0.457350 0.445560 -0.045180 8.539253 10.847683 11.274212 47.356379 -5.092721 -18.075580 177.459644 65.838207 157.391771 2.121067 -1.518701 0.080360 -0.020260 -0.043740 -0.328260 
-0.133210 16.940300 -3.440320 -8.297270 -17.234241 -2.874726 -15.391413 13.607732 4.498604 15.731146 -1.274250 -31.431148 -15.367555 11.647434 27.862966 0.053646 6.805143 1.827411 0.473590 0.046550 0.641820 17.991565 -9.617820 2.951187 2.774634 2.717020 -5.705102 12.709914 -7.990042 22.198150 -0.848289 -4.133035 2.845785 -0.188480 -0.503400 0.240580 -2.680732 -4.550971 -8.843127 23.658641 -3.745699 36.330194 -4.124586 7.787198 -5.529540 9.601912 -3.328582 -12.661877 -10.087940 3.451206 64.194563 -12.841850 -0.635800 -19.551360 -30.355490 -1.197057 -0.699976 -55.744639 8.236298 -11.532751 -17.639953 -18.123430 -0.480967 -3.242393 2.803772 0.910440 -0.477680 0.480710 -0.060190 10.674947 11.006478 10.787660 48.994968 -6.910375 -22.121857 145.834044 71.259408 117.781295 2.210987 -0.828959 0.084900 -0.019810 -0.050730 -0.349790 
-0.151160 16.892170 -3.433620 -8.444086 -17.573176 -2.729673 -15.431948 13.443358 4.702873 16.580748 -1.333797 -33.301993 -15.666400 12.545372 30.358233 0.126366 7.295050 1.627247 0.521440 0.100950 0.688050 17.996417 -9.499715 2.907988 2.681183 3.094142 -6.103687 13.328378 -8.379214 23.446965 -0.910183 -4.267809 2.783789 -0.170960 -0.548140 0.247840 -2.661360 -4.554345 -8.943815 23.362659 -3.332858 36.016027 -3.240360 8.204040 -6.404802 9.139076 -3.103209 -12.701373 -10.275229 3.481619 66.580571 -11.958970 -0.430570 -19.495490 -30.837683 -1.233942 -0.406655 -56.193606 9.016370 -11.895026 -17.485555 -18.391667 -0.575103 -3.213677 2.804444 0.935810 -0.503750 0.524550 -0.059620 12.196945 10.962397 10.223678 50.722129 -7.073153 -20.935987 104.666768 76.715231 69.639014 3.856167 1.562952 0.109360 -0.035040 -0.081750 -0.360830 
